<svg width="30" height="30" viewBox="0 0 30 30" fill="none" xmlns="http://www.w3.org/2000/svg">
<path d="M5 3.75H25C25.3315 3.75 25.6495 3.8817 25.8839 4.11612C26.1183 4.35054 26.25 4.66848 26.25 5V25C26.25 25.3315 26.1183 25.6495 25.8839 25.8839C25.6495 26.1183 25.3315 26.25 25 26.25H5C4.66848 26.25 4.35054 26.1183 4.11612 25.8839C3.8817 25.6495 3.75 25.3315 3.75 25V5C3.75 4.66848 3.8817 4.35054 4.11612 4.11612C4.35054 3.8817 4.66848 3.75 5 3.75ZM6.25 6.25V23.75H23.75V6.25H6.25ZM21.625 19.925L22.8187 21.1175V21.18H16.6675V21.1175L17.9225 19.925C18.0475 19.8 18.11 19.675 18.11 19.4862V12.08C18.11 11.765 18.11 11.3263 18.1737 10.95L14.0312 21.3062H13.9688L9.7 11.765C9.6375 11.515 9.575 11.515 9.5125 11.39V17.665C9.44875 18.105 9.5125 18.4812 9.7 18.8587L11.395 21.1175V21.18H6.875V21.1175L8.57 18.795C8.7575 18.42 8.82 17.98 8.7575 17.6025V10.7C8.7575 10.3863 8.695 10.0088 8.445 9.75875L7.31375 8.1875V8.125H11.7075L15.3475 16.2225L18.55 8.125H22.8187V8.1875L21.6263 9.56875C21.5013 9.69375 21.4387 9.8825 21.4387 10.0075V19.5487C21.4387 19.6737 21.5013 19.8625 21.6263 19.925H21.625Z" fill="white"/>
</svg>
