<svg width="105" height="34" viewBox="0 0 105 34" fill="none" xmlns="http://www.w3.org/2000/svg">
<path d="M15 5.25L26.875 12.125V25.875L15 32.75L3.125 25.875V12.125L15 5.25ZM15 8.13875L5.625 13.5662V24.4338L15 29.8612L24.375 24.4338V13.5662L15 8.13875ZM15 24C13.6739 24 12.4021 23.4732 11.4645 22.5355C10.5268 21.5979 10 20.3261 10 19C10 17.6739 10.5268 16.4021 11.4645 15.4645C12.4021 14.5268 13.6739 14 15 14C16.3261 14 17.5979 14.5268 18.5355 15.4645C19.4732 16.4021 20 17.6739 20 19C20 20.3261 19.4732 21.5979 18.5355 22.5355C17.5979 23.4732 16.3261 24 15 24ZM15 21.5C15.663 21.5 16.2989 21.2366 16.7678 20.7678C17.2366 20.2989 17.5 19.663 17.5 19C17.5 18.337 17.2366 17.7011 16.7678 17.2322C16.2989 16.7634 15.663 16.5 15 16.5C14.337 16.5 13.7011 16.7634 13.2322 17.2322C12.7634 17.7011 12.5 18.337 12.5 19C12.5 19.663 12.7634 20.2989 13.2322 20.7678C13.7011 21.2366 14.337 21.5 15 21.5Z" fill="white"/>
<path fill-rule="evenodd" clip-rule="evenodd" d="M5.58594 27.3106C6.11279 26.4388 6.75591 25.6481 7.49447 24.9587C8.12959 24.3659 8.83529 23.848 9.59833 23.4178C11.2487 22.4874 13.1114 21.999 15.006 22C16.9006 22.001 18.7628 22.4913 20.4122 23.4234C21.1748 23.8544 21.88 24.373 22.5145 24.9665C23.2521 25.6564 23.8942 26.4474 24.42 27.3194C24.4202 27.3197 24.4204 27.32 24.4206 27.3203L15.0003 33L5.58594 27.3106ZM15.0021 29.4958L19.8025 26.6016C19.5271 26.395 19.2379 26.2056 18.9363 26.0352C17.7367 25.3573 16.3823 25.0007 15.0045 25C13.6266 24.9993 12.2719 25.3545 11.0716 26.0311C10.7698 26.2013 10.4804 26.3903 10.2048 26.5967L15.0021 29.4958Z" fill="white"/>
<path d="M95 25.25H97.5V27.75H72.5V25.25H75V16.5C75 13.8478 76.0536 11.3043 77.9289 9.42893C79.8043 7.55357 82.3478 6.5 85 6.5C87.6522 6.5 90.1957 7.55357 92.0711 9.42893C93.9464 11.3043 95 13.8478 95 16.5V25.25ZM92.5 25.25V16.5C92.5 14.5109 91.7098 12.6032 90.3033 11.1967C88.8968 9.79018 86.9891 9 85 9C83.0109 9 81.1032 9.79018 79.6967 11.1967C78.2902 12.6032 77.5 14.5109 77.5 16.5V25.25H92.5ZM81.25 30.25H88.75V32.75H81.25V30.25Z" fill="white"/>
<circle cx="95" cy="10" r="10" fill="#EE3233"/>
<circle cx="95" cy="10" r="10" fill="url(#paint0_radial_3590_11424)"/>
<path d="M97.62 12.68V14H92.33V12.95L95.03 10.4C95.3167 10.1267 95.51 9.89333 95.61 9.7C95.71 9.5 95.76 9.30333 95.76 9.11C95.76 8.83 95.6633 8.61667 95.47 8.47C95.2833 8.31667 95.0067 8.24 94.64 8.24C94.3333 8.24 94.0567 8.3 93.81 8.42C93.5633 8.53333 93.3567 8.70667 93.19 8.94L92.01 8.18C92.2833 7.77333 92.66 7.45667 93.14 7.23C93.62 6.99667 94.17 6.88 94.79 6.88C95.31 6.88 95.7633 6.96667 96.15 7.14C96.5433 7.30667 96.8467 7.54667 97.06 7.86C97.28 8.16667 97.39 8.53 97.39 8.95C97.39 9.33 97.31 9.68667 97.15 10.02C96.99 10.3533 96.68 10.7333 96.22 11.16L94.61 12.68H97.62Z" fill="white"/>
<defs>
<radialGradient id="paint0_radial_3590_11424" cx="0" cy="0" r="1" gradientUnits="userSpaceOnUse" gradientTransform="translate(92.9892 1.7356) rotate(63.4852) scale(17.7809 17.7373)">
<stop stop-color="#FF996D"/>
<stop offset="1" stop-color="#FF0000"/>
</radialGradient>
</defs>
</svg>
