<svg width="90" height="73" viewBox="0 0 90 73" fill="none" xmlns="http://www.w3.org/2000/svg">
<path d="M47.0799 0.103567C48.3968 0.234642 48.6323 1.8344 47.4381 2.40877C46.5352 2.84299 45.6289 3.24475 44.7137 3.65045C38.9433 6.20835 32.8197 8.92287 24.9873 20.9164C24.5849 21.5326 23.6632 21.2901 23.6962 20.5531C23.7646 19.0232 23.9972 17.4772 24.4068 15.9369C27.1475 5.62867 36.8759 -0.912095 47.0799 0.103567Z" fill="url(#paint0_radial_3510_3051)"/>
<path d="M65.6105 27.0631C62.5617 38.5299 50.8663 45.3348 39.488 42.2622C32.4158 40.3525 27.1307 35.0763 24.8755 28.6028C24.5873 27.7757 24.7295 26.8605 25.2431 26.153C33.1123 15.3124 48.6503 11.021 62.2125 13.6056C64.0328 13.9525 65.5199 15.3067 65.8975 17.1345C66.5556 20.3203 66.5032 23.7054 65.6105 27.0631Z" fill="url(#paint1_radial_3510_3051)"/>
<path d="M19.2644 61.0492C19.2644 62.5738 18.8335 63.9098 17.9715 65.0574C17.1268 66.1885 15.9287 67.0328 14.3772 67.5902L17.4026 72.6066H11.0674L8.50738 68.2787H7.0076L6.10256 72.6066H0L3.62016 55.3934H11.7397C14.1186 55.3934 15.9632 55.8934 17.2733 56.8934C18.6007 57.877 19.2644 59.2623 19.2644 61.0492ZM13.0843 61.6148C13.0843 60.4508 12.3258 59.8689 10.8088 59.8689H8.76596L7.91264 63.9016H10.4209C11.2656 63.9016 11.9207 63.7049 12.3861 63.3115C12.8516 62.9016 13.0843 62.3361 13.0843 61.6148Z" fill="#222222"/>
<path d="M32.4552 69.6066H25.551L23.7409 72.6066H17.3022L28.835 55.3934H34.8342L39.1266 72.6066H33.0499L32.4552 69.6066ZM31.6019 65.4262L30.7227 61.0246L28.0593 65.4262H31.6019Z" fill="#222222"/>
<path d="M59.365 61.0492C59.365 62.5738 58.934 63.9098 58.0721 65.0574C57.2274 66.1885 56.0293 67.0328 54.4778 67.5902L57.5032 72.6066H51.1679L48.6079 68.2787H47.1082L46.2031 72.6066H40.1006L43.7207 55.3934H51.8402C54.2192 55.3934 56.0638 55.8934 57.3739 56.8934C58.7013 57.877 59.365 59.2623 59.365 61.0492ZM53.1849 61.6148C53.1849 60.4508 52.4263 59.8689 50.9093 59.8689H48.8665L48.0132 63.9016H50.5215C51.3662 63.9016 52.0212 63.7049 52.4867 63.3115C52.9521 62.9016 53.1849 62.3361 53.1849 61.6148Z" fill="#222222"/>
<path d="M62.9882 55.3934H69.0907L65.4706 72.6066H59.368L62.9882 55.3934Z" fill="#222222"/>
<path d="M78.5965 73C76.7519 73 75.1315 72.6803 73.7351 72.041C72.356 71.3852 71.2872 70.4754 70.5287 69.3115C69.7874 68.1475 69.4168 66.8115 69.4168 65.3033C69.4168 63.3033 69.8995 61.5246 70.8649 59.9672C71.8475 58.3934 73.2007 57.1721 74.9246 56.3033C76.6657 55.4344 78.631 55 80.8203 55C82.6649 55 84.2767 55.3279 85.6558 55.9836C87.0522 56.623 88.121 57.5246 88.8622 58.6885C89.6208 59.8525 90 61.1885 90 62.6967C90 64.6967 89.5087 66.4836 88.5261 68.0574C87.5607 69.6148 86.2075 70.8279 84.4663 71.6967C82.7424 72.5656 80.7858 73 78.5965 73ZM79.1137 68.3033C80.079 68.3033 80.9151 68.0656 81.6219 67.5902C82.346 67.1148 82.8976 66.4754 83.2768 65.6721C83.6561 64.8689 83.8457 63.9918 83.8457 63.041C83.8457 62.0246 83.5268 61.2131 82.889 60.6066C82.2684 60 81.4064 59.6967 80.3031 59.6967C79.3378 59.6967 78.4931 59.9344 77.769 60.4098C77.0622 60.8852 76.5192 61.5246 76.14 62.3279C75.7607 63.1311 75.5711 64.0082 75.5711 64.959C75.5711 65.9754 75.8814 66.7869 76.502 67.3934C77.1398 68 78.0104 68.3033 79.1137 68.3033Z" fill="#222222"/>
<defs>
<radialGradient id="paint0_radial_3510_3051" cx="0" cy="0" r="1" gradientUnits="userSpaceOnUse" gradientTransform="translate(40.7312 3.73154) rotate(63.6733) scale(38.1666 37.8841)">
<stop stop-color="#FF996D"/>
<stop offset="1" stop-color="#FF0000"/>
</radialGradient>
<radialGradient id="paint1_radial_3510_3051" cx="0" cy="0" r="1" gradientUnits="userSpaceOnUse" gradientTransform="translate(40.7312 3.73154) rotate(63.6733) scale(38.1666 37.8841)">
<stop stop-color="#FF996D"/>
<stop offset="1" stop-color="#FF0000"/>
</radialGradient>
</defs>
</svg>
