<svg width="175" height="68" viewBox="0 0 175 68" fill="none" xmlns="http://www.w3.org/2000/svg">
<path d="M34.3302 14.8671C35.0245 14.9362 35.1487 15.7797 34.519 16.0826C34.043 16.3115 33.5651 16.5234 33.0825 16.7373C30.0399 18.086 26.8111 19.5173 22.6812 25.8413C22.4691 26.1662 21.9831 26.0383 22.0005 25.6497C22.0365 24.843 22.1592 24.0278 22.3751 23.2156C23.8203 17.7804 28.9498 14.3316 34.3302 14.8671Z" fill="url(#paint0_radial_3590_11462)"/>
<path d="M44.1009 29.0823C42.4934 35.1284 36.3266 38.7165 30.3271 37.0964C26.5981 36.0895 23.8114 33.3074 22.6223 29.8941C22.4703 29.458 22.5453 28.9754 22.8161 28.6024C26.9653 22.8864 35.1582 20.6236 42.3092 21.9864C43.269 22.1693 44.0532 22.8834 44.2522 23.8472C44.5992 25.5269 44.5716 27.3118 44.1009 29.0823Z" fill="url(#paint1_radial_3590_11462)"/>
<path d="M71.1442 22.5069C71.1442 24.3674 70.6479 25.9978 69.6554 27.3982C68.6827 28.7786 67.3031 29.8088 65.5165 30.489L69.0003 36.6106H61.7051L58.7573 31.3292H57.0303L55.9881 36.6106H48.9609L53.1296 15.6051H62.4793C65.2187 15.6051 67.3428 16.2153 68.8514 17.4356C70.3799 18.6359 71.1442 20.3264 71.1442 22.5069ZM64.0277 23.1971C64.0277 21.7767 63.1543 21.0665 61.4074 21.0665H59.0551L58.0725 25.9878H60.9607C61.9334 25.9878 62.6878 25.7478 63.2237 25.2676C63.7597 24.7675 64.0277 24.0773 64.0277 23.1971Z" fill="white"/>
<path d="M86.3335 32.9496H78.3833L76.299 36.6106H68.8847L82.1649 15.6051H89.073L94.0158 36.6106H87.0184L86.3335 32.9496ZM85.3509 27.8483L84.3385 22.4769L81.2716 27.8483H85.3509Z" fill="white"/>
<path d="M117.321 22.5069C117.321 24.3674 116.824 25.9978 115.832 27.3982C114.859 28.7786 113.479 29.8088 111.693 30.489L115.177 36.6106H107.882L104.934 31.3292H103.207L102.164 36.6106H95.1373L99.306 15.6051H108.656C111.395 15.6051 113.519 16.2153 115.028 17.4356C116.556 18.6359 117.321 20.3264 117.321 22.5069ZM110.204 23.1971C110.204 21.7767 109.331 21.0665 107.584 21.0665H105.231L104.249 25.9878H107.137C108.11 25.9878 108.864 25.7478 109.4 25.2676C109.936 24.7675 110.204 24.0773 110.204 23.1971Z" fill="white"/>
<path d="M121.493 15.6051H128.52L124.351 36.6106H117.324L121.493 15.6051Z" fill="white"/>
<path d="M139.466 37.0907C137.342 37.0907 135.476 36.7006 133.868 35.9204C132.28 35.1202 131.049 34.0099 130.176 32.5896C129.322 31.1692 128.895 29.5388 128.895 27.6983C128.895 25.2576 129.451 23.0871 130.563 21.1866C131.694 19.2661 133.253 17.7757 135.238 16.7154C137.243 15.6551 139.506 15.125 142.027 15.125C144.151 15.125 146.007 15.5251 147.595 16.3253C149.203 17.1055 150.433 18.2058 151.287 19.6262C152.16 21.0465 152.597 22.677 152.597 24.5174C152.597 26.9581 152.031 29.1387 150.9 31.0592C149.788 32.9597 148.23 34.44 146.225 35.5003C144.24 36.5606 141.987 37.0907 139.466 37.0907ZM140.061 31.3592C141.173 31.3592 142.136 31.0692 142.95 30.489C143.783 29.9089 144.419 29.1287 144.855 28.1484C145.292 27.1681 145.51 26.0979 145.51 24.9376C145.51 23.6972 145.143 22.707 144.409 21.9668C143.694 21.2266 142.702 20.8565 141.431 20.8565C140.319 20.8565 139.347 21.1466 138.513 21.7267C137.699 22.3069 137.074 23.0871 136.637 24.0673C136.2 25.0476 135.982 26.1179 135.982 27.2782C135.982 28.5185 136.339 29.5088 137.054 30.2489C137.789 30.9891 138.791 31.3592 140.061 31.3592Z" fill="white"/>
<path d="M126.164 46.632C126.644 46.784 127.02 47.04 127.292 47.4C127.564 47.752 127.7 48.188 127.7 48.708C127.7 49.444 127.412 50.012 126.836 50.412C126.268 50.804 125.436 51 124.34 51H119.996V42.6H124.1C125.124 42.6 125.908 42.796 126.452 43.188C127.004 43.58 127.28 44.112 127.28 44.784C127.28 45.192 127.18 45.556 126.98 45.876C126.788 46.196 126.516 46.448 126.164 46.632ZM121.928 44.064V46.044H123.86C124.34 46.044 124.704 45.96 124.952 45.792C125.2 45.624 125.324 45.376 125.324 45.048C125.324 44.72 125.2 44.476 124.952 44.316C124.704 44.148 124.34 44.064 123.86 44.064H121.928ZM124.196 49.536C124.708 49.536 125.092 49.452 125.348 49.284C125.612 49.116 125.744 48.856 125.744 48.504C125.744 47.808 125.228 47.46 124.196 47.46H121.928V49.536H124.196ZM135.676 49.44V51H129.172V42.6H135.52V44.16H131.104V45.984H135.004V47.496H131.104V49.44H135.676ZM138.963 44.184H136.275V42.6H143.595V44.184H140.907V51H138.963V44.184ZM149.751 49.2H145.851L145.107 51H143.115L146.859 42.6H148.779L152.535 51H150.495L149.751 49.2ZM149.139 47.724L147.807 44.508L146.475 47.724H149.139Z" fill="white"/>
<defs>
<radialGradient id="paint0_radial_3590_11462" cx="0" cy="0" r="1" gradientUnits="userSpaceOnUse" gradientTransform="translate(30.9826 16.7801) rotate(63.6733) scale(20.1244 19.9754)">
<stop stop-color="#FF996D"/>
<stop offset="1" stop-color="#FF0000"/>
</radialGradient>
<radialGradient id="paint1_radial_3590_11462" cx="0" cy="0" r="1" gradientUnits="userSpaceOnUse" gradientTransform="translate(30.9826 16.7801) rotate(63.6733) scale(20.1244 19.9754)">
<stop stop-color="#FF996D"/>
<stop offset="1" stop-color="#FF0000"/>
</radialGradient>
</defs>
</svg>
