<svg width="30" height="30" viewBox="0 0 30 30" fill="none" xmlns="http://www.w3.org/2000/svg">
<path d="M15 1.25L26.875 8.125V21.875L15 28.75L3.125 21.875V8.125L15 1.25ZM15 4.13875L5.625 9.56625V20.4338L15 25.8612L24.375 20.4338V9.56625L15 4.13875ZM15 20C13.6739 20 12.4021 19.4732 11.4645 18.5355C10.5268 17.5979 10 16.3261 10 15C10 13.6739 10.5268 12.4021 11.4645 11.4645C12.4021 10.5268 13.6739 10 15 10C16.3261 10 17.5979 10.5268 18.5355 11.4645C19.4732 12.4021 20 13.6739 20 15C20 16.3261 19.4732 17.5979 18.5355 18.5355C17.5979 19.4732 16.3261 20 15 20ZM15 17.5C15.663 17.5 16.2989 17.2366 16.7678 16.7678C17.2366 16.2989 17.5 15.663 17.5 15C17.5 14.337 17.2366 13.7011 16.7678 13.2322C16.2989 12.7634 15.663 12.5 15 12.5C14.337 12.5 13.7011 12.7634 13.2322 13.2322C12.7634 13.7011 12.5 14.337 12.5 15C12.5 15.663 12.7634 16.2989 13.2322 16.7678C13.7011 17.2366 14.337 17.5 15 17.5Z" fill="white"/>
<path fill-rule="evenodd" clip-rule="evenodd" d="M5.58594 23.3106C6.11279 22.4388 6.75591 21.6481 7.49447 20.9587C8.12959 20.3659 8.83529 19.848 9.59833 19.4178C11.2487 18.4874 13.1114 17.999 15.006 18C16.9006 18.001 18.7628 18.4913 20.4122 19.4234C21.1748 19.8544 21.88 20.373 22.5145 20.9665C23.2521 21.6564 23.8942 22.4474 24.42 23.3194C24.4202 23.3197 24.4204 23.32 24.4206 23.3203L15.0003 29L5.58594 23.3106ZM15.0021 25.4958L19.8025 22.6016C19.5271 22.395 19.2379 22.2056 18.9363 22.0352C17.7367 21.3573 16.3823 21.0007 15.0045 21C13.6266 20.9993 12.2719 21.3545 11.0716 22.0311C10.7698 22.2013 10.4804 22.3903 10.2048 22.5967L15.0021 25.4958Z" fill="white"/>
</svg>
